<svg width="29" height="29" viewBox="0 0 29 29" fill="none" xmlns="http://www.w3.org/2000/svg">
<g id="Component 1">
<path id="Vector" fill-rule="evenodd" clip-rule="evenodd" d="M18.1599 9.23226H8.2726C6.92212 9.23226 5.77779 10.2267 5.58942 11.5639L3.93533 23.3059C3.70561 24.9366 4.97167 26.3936 6.61852 26.3936H20.3653C22.0623 26.3936 23.3417 24.8515 23.0285 23.1837L20.8231 11.4417C20.5824 10.1605 19.4635 9.23226 18.1599 9.23226ZM8.2726 7.42581C6.02181 7.42581 4.11459 9.08319 3.80062 11.3119L2.14654 23.0539C1.76367 25.7719 3.87377 28.2 6.61852 28.2H20.3653C23.1937 28.2 25.326 25.6299 24.8039 22.8502L22.5985 11.1083C22.1973 8.97292 20.3326 7.42581 18.1599 7.42581H8.2726Z" fill="#3B3B3B"/>
<path id="Vector_2" fill-rule="evenodd" clip-rule="evenodd" d="M18.1599 9.23226H8.2726C6.92212 9.23226 5.77779 10.2267 5.58942 11.5639L3.93533 23.3059C3.70561 24.9366 4.97167 26.3936 6.61852 26.3936H20.3653C22.0623 26.3936 23.3417 24.8515 23.0285 23.1837L20.8231 11.4417C20.5824 10.1605 19.4635 9.23226 18.1599 9.23226ZM8.2726 7.42581C6.02181 7.42581 4.11459 9.08319 3.80062 11.3119L2.14654 23.0539C1.76367 25.7719 3.87377 28.2 6.61852 28.2H20.3653C23.1937 28.2 25.326 25.6299 24.8039 22.8502L22.5985 11.1083C22.1973 8.97292 20.3326 7.42581 18.1599 7.42581H8.2726Z" fill="#3B3B3B" fill-opacity="0.2"/>
<path id="Vector_3" fill-rule="evenodd" clip-rule="evenodd" d="M17.6358 14.2554C16.6381 14.2554 15.8294 13.4465 15.8294 12.4489H17.6358V6.64755C17.6358 5.41666 17.1623 4.23618 16.3195 3.36581C15.4767 2.49543 14.3336 2.00646 13.1416 2.00646C11.9497 2.00646 10.8066 2.49543 9.96372 3.36581C9.12089 4.23618 8.64739 5.41666 8.64739 6.64755V12.4489H10.4538C10.4538 13.4465 9.64507 14.2554 8.64739 14.2554C7.64972 14.2554 6.84094 13.4465 6.84094 12.4489V6.64755C6.84094 4.95597 7.49111 3.32244 8.66599 2.10915C9.84279 0.893896 11.4515 0.200012 13.1416 0.200012C14.8317 0.200012 16.4404 0.893896 17.6172 2.10915C18.7921 3.32244 19.4423 4.95597 19.4423 6.64755V12.4489C19.4423 13.4465 18.6335 14.2554 17.6358 14.2554Z" fill="#3B3B3B"/>
</g>
</svg>
