<svg width="16" height="18" viewBox="0 0 16 18" fill="none" xmlns="http://www.w3.org/2000/svg">
<g id="Clip path group">
<mask id="mask0_104_148" style="mask-type:luminance" maskUnits="userSpaceOnUse" x="0" y="0" width="16" height="18">
<g id="clip0_1182_596">
<path id="Vector" d="M15.41 0.139374H0.938995V17.3237H15.41V0.139374Z" fill="white"/>
</g>
</mask>
<g mask="url(#mask0_104_148)">
<g id="Group">
<path id="Vector_2" d="M1.25749 5.87725C1.46151 5.67795 1.73818 5.56598 2.02665 5.56598C2.31513 5.56598 2.5918 5.67795 2.79581 5.87725L8.18103 11.1397L13.5663 5.87725C13.7715 5.68359 14.0463 5.57644 14.3315 5.57886C14.6168 5.58128 14.8896 5.69309 15.0913 5.8902C15.2931 6.08731 15.4075 6.35396 15.4099 6.63271C15.4124 6.91146 15.3028 7.18001 15.1046 7.38052L8.95019 13.3946C8.74618 13.594 8.46951 13.7059 8.18103 13.7059C7.89255 13.7059 7.61589 13.594 7.41187 13.3946L1.25749 7.38052C1.05354 7.18115 0.938965 6.91079 0.938965 6.62888C0.938965 6.34698 1.05354 6.07662 1.25749 5.87725Z" fill="white"/>
</g>
</g>
</g>
</svg>
