<svg width="29" height="29" viewBox="0 0 29 29" fill="none" xmlns="http://www.w3.org/2000/svg">
<g id="Component 1">
<path id="Vector" fill-rule="evenodd" clip-rule="evenodd" d="M14.09 24.0639L3.73203 13.3518C2.68415 12.2652 2.09576 10.8021 2.09314 9.2773C2.09314 9.2739 2.09313 9.2705 2.09313 9.2671C2.09313 7.73855 2.68181 6.27135 3.73203 5.18239C3.73842 5.17574 3.74483 5.16911 3.75125 5.1625C3.75096 5.16279 3.75154 5.1622 3.75125 5.1625C4.2571 4.64181 4.85918 4.22683 5.52159 3.94298C5.52785 3.9403 5.53411 3.93763 5.54038 3.93498C6.20623 3.65261 6.92017 3.50722 7.64127 3.50722C8.36238 3.50722 9.0763 3.65261 9.7422 3.93498C9.74846 3.93763 9.75472 3.9403 9.76098 3.94298C9.99124 4.04166 10.2142 4.15609 10.4282 4.28527C10.8303 4.52786 11.2011 4.82246 11.5313 5.1625C11.5331 5.16434 11.5349 5.16618 11.5367 5.16803C11.5413 5.17281 11.5459 5.17759 11.5505 5.18239L14.09 7.83745L16.6196 5.20282C16.6291 5.19275 16.6386 5.18273 16.6482 5.17274C16.6507 5.17015 16.6532 5.16754 16.6557 5.16495C16.9917 4.81647 17.3706 4.51552 17.7822 4.2693C17.9841 4.14857 18.1938 4.04099 18.4101 3.94742C18.4197 3.94326 18.4293 3.93913 18.4389 3.93504C19.1036 3.65215 19.8168 3.50684 20.537 3.50765C20.5366 3.50765 20.5374 3.50765 20.537 3.50765C20.5372 3.50765 20.5386 3.50766 20.5388 3.50766C21.2596 3.50704 21.9734 3.65197 22.6391 3.93405C22.6457 3.93682 22.6522 3.93961 22.6588 3.94242C23.3212 4.22623 23.9224 4.64054 24.428 5.16159C24.4279 5.16148 24.428 5.1617 24.428 5.16159C24.4345 5.1684 24.4415 5.17554 24.4481 5.18239C25.4982 6.27135 26.087 7.73855 26.087 9.2671C26.087 9.2705 26.087 9.2739 26.0869 9.2773C26.0843 10.8021 25.4959 12.2652 24.4481 13.3518L14.09 24.0639ZM25.8958 3.77161C25.8969 3.77268 25.8979 3.77375 25.8989 3.77483C27.3012 5.24429 28.0874 7.21458 28.09 9.2671C28.09 9.2705 28.09 9.2739 28.09 9.2773C28.09 11.33 27.3061 13.3013 25.9059 14.7724C25.9053 14.773 25.9047 14.7737 25.9041 14.7744C25.8953 14.7835 25.8866 14.7927 25.8778 14.8019L14.09 26.9947L2.30231 14.8019C2.2935 14.7927 2.28472 14.7835 2.27595 14.7744C2.27534 14.7737 2.27474 14.773 2.27413 14.7724C0.873935 13.3013 0.0900269 11.33 0.0900269 9.2773C0.0900269 9.2739 0.090029 9.2705 0.0900333 9.2671C0.0926332 7.21413 0.879223 5.24342 2.28206 3.77387C2.28278 3.77312 2.2835 3.77236 2.28422 3.77161C2.29023 3.76531 2.29626 3.75902 2.30231 3.75275C2.99428 3.03415 3.81842 2.46239 4.72735 2.07025C4.73384 2.06745 4.74034 2.06465 4.74685 2.06187C5.66348 1.66951 6.6474 1.46745 7.64127 1.46745C8.15931 1.46745 8.67466 1.52235 9.17916 1.63048C9.64256 1.7298 10.0968 1.87402 10.5357 2.06187C10.5422 2.06465 10.5487 2.06745 10.5552 2.07025C11.1523 2.32787 11.7128 2.663 12.2233 3.06637C12.4899 3.277 12.7429 3.50623 12.9802 3.75275L14.09 4.89646L15.1998 3.75275C15.4398 3.50275 15.6958 3.2705 15.9659 3.05738C16.469 2.66033 17.0207 2.32965 17.6082 2.07432C17.62 2.06922 17.6317 2.06416 17.6435 2.05912C18.0825 1.87102 18.537 1.7267 19.0007 1.62746C19.5047 1.51959 20.0195 1.46498 20.537 1.4653C20.5376 1.4653 20.5382 1.4653 20.5388 1.4653C20.5397 1.4653 20.5407 1.4653 20.5417 1.46531C21.5347 1.46599 22.5177 1.66838 23.4335 2.06071C23.44 2.06351 23.4465 2.06632 23.453 2.06913C24.3619 2.46164 25.1859 3.03379 25.8778 3.75275C25.8838 3.75902 25.8898 3.76531 25.8958 3.77161Z" fill="#3B3B3B"/>
</g>
</svg>
