<svg width="26" height="26" viewBox="0 0 26 26" fill="none" xmlns="http://www.w3.org/2000/svg">
<g id="Component 1">
<path id="Vector" d="M22.402 20.4921L16.6794 14.7695C17.5675 13.6214 18.0479 12.2177 18.0479 10.7414C18.0479 8.9741 17.3581 7.31703 16.1109 6.06761C14.8636 4.81819 13.2022 4.13068 11.4372 4.13068C9.6721 4.13068 8.01063 4.82039 6.7634 6.06761C5.51399 7.31483 4.82648 8.9741 4.82648 10.7414C4.82648 12.5064 5.51619 14.1679 6.7634 15.4151C8.01063 16.6645 9.6699 17.352 11.4372 17.352C12.9135 17.352 14.315 16.8716 15.463 15.9859L21.1856 21.7063C21.2025 21.723 21.2224 21.7364 21.2444 21.7455C21.2663 21.7545 21.2898 21.7593 21.3135 21.7593C21.3373 21.7593 21.3608 21.7545 21.3826 21.7455C21.4046 21.7364 21.4245 21.723 21.4413 21.7063L22.402 20.7478C22.4189 20.7309 22.4321 20.711 22.4413 20.6891C22.4504 20.6671 22.455 20.6436 22.455 20.6199C22.455 20.5961 22.4504 20.5726 22.4413 20.5508C22.4321 20.5288 22.4189 20.5089 22.402 20.4921ZM14.9276 14.2318C13.9933 15.1639 12.7549 15.6774 11.4372 15.6774C10.1194 15.6774 8.88103 15.1639 7.94671 14.2318C7.01461 13.2975 6.50119 12.0591 6.50119 10.7414C6.50119 9.42363 7.01461 8.18303 7.94671 7.25091C8.88103 6.31881 10.1194 5.80539 11.4372 5.80539C12.7549 5.80539 13.9955 6.31661 14.9276 7.25091C15.8596 8.18523 16.3731 9.42363 16.3731 10.7414C16.3731 12.0591 15.8596 13.2996 14.9276 14.2318Z" fill="white"/>
</g>
</svg>
